# xmcd
#
# Track frame offsets:
#	150
#	14817
#	30947
#	45310
#	59265
#	74440
#	89866
#	107834
#	119626
#	134221
#	152378
#
# Disc length: 2269 seconds
#
# Revision: 1
# Processed by: cddbd v1.5.2PL0 Copyright (c) Steve Scherf et al.
# Submitted via: audiograbber 1.83.01
#
DISCID=9d08db0b
DTITLE=Veronique Labbe - L'amour est un mystere
DYEAR=2006
DGENRE=Québécois
TTITLE0=Ton amour m'agace
TTITLE1=Pourtant
TTITLE2=Comme je t'aime
TTITLE3=Laisse-moi
TTITLE4=Je n'peux croire
TTITLE5=L'amour est un mystere
TTITLE6=Les ecrits restent
TTITLE7=Dire
TTITLE8=Si tout s'arrete
TTITLE9=Derriere ton sourire
TTITLE10=Si tu veux
EXTD=
EXTT0=
EXTT1=
EXTT2=
EXTT3=
EXTT4=
EXTT5=
EXTT6=
EXTT7=
EXTT8=
EXTT9=
EXTT10=
PLAYORDER=
